<?xml version="1.0" encoding="utf-8"?>
<!-- Generator: Adobe Illustrator 27.7.0, SVG Export Plug-In . SVG Version: 6.00 Build 0)  -->
<svg version="1.1" id="AB_Tasty_Logotype" xmlns="http://www.w3.org/2000/svg" xmlns:xlink="http://www.w3.org/1999/xlink" x="0px"
	 y="0px" viewBox="0 0 800 300" style="enable-background:new 0 0 800 300;" xml:space="preserve">
<style type="text/css">
	.st0{fill:#3100BE;}
</style>
<path class="st0" d="M510.4,173.2c0-4.9,2.9-7.8,9-8.7l14.1-2v3.8c0,8.5-6.1,14.5-14.5,14.5C513.3,180.8,510.4,178.1,510.4,173.2
	L510.4,173.2z M374.4,138.5V120h26.4c6.9,0,9.7,2.7,9.7,9.2c0,6.4-2.9,9.4-9.7,9.4H374.4z M374.4,175.3v-20.4h25.9
	c8.5,0,12.7,3.2,12.7,9.7c0,6.9-4.4,10.6-12.7,10.6H374.4z M293.7,153.3l11.5-31.8h0.8l11.4,31.8H293.7z M645.4,191.7h14.7v-14.6
	h-8.8c-3.6,0-4.9-1.3-4.9-4.9v-27H668l19,47.8c1.8,4.5-0.3,7.4-5.3,7.4h-12.4V215h12.8c11.9,0,17.4-3.7,21.1-14.1l25.1-70.2v-0.3
	h-18.2l-13.3,42.8h-0.8l-14.7-42.8h-35v-19.3h-17.2v19.3H619v14.7h10.2v30.2C629.2,187.3,633.6,191.7,645.4,191.7 M513.8,194.3
	c8.5,0,15.5-3.5,19.7-9.7h0.8c1.8,5,7.4,8.5,14.5,8.5c6,0,10.5-2.6,13.3-7.7c6.3,5,15.2,7.8,25.6,7.8c18.6,0,30.5-9,30.5-22.9
	c0-10.6-7-16.1-23.8-18.1l-7.9-0.9c-6-0.6-7.8-1.7-7.8-4.2c0-3.5,3.3-5.6,8.7-5.6c5.8,0,11,2.7,13.7,7.2l15.4-6.7
	c-4.9-8.5-16-14-29.2-14c-15.8,0-25.9,7.8-25.9,20c0,10.5,7.6,16.7,22.7,18.7l8.3,1.2c5.9,0.8,8.5,2.3,8.5,5.3
	c0,3.7-4.1,6.5-11.7,6.5c-8.5,0-14.7-3.5-17.2-9.7l-7.7,4.9c-2.9,1.9-5.3,2.7-7.9,2.8c-4.2-0.3-5.8-1.8-5.8-5.5v-22
	c0-15.2-8.3-22-26.9-22c-16.9,0-26.1,5.9-28.7,18.2l17.5,3.1c1-4.7,4.9-7.3,11-7.3c6.7,0,9.9,2.8,9.9,8.8v0.6l-19.6,2.9
	c-12.9,1.9-20.6,9.5-20.6,20.8C493.2,186.7,501.3,194.3,513.8,194.3L513.8,194.3z M459.9,191.7h19V120h29.6v-16.4h-75.6V120h27
	V191.7z M355.5,191.7h49.6c17.3,0,27.4-9,27.4-24.2c0-11.5-5.9-18.7-17-21.1v-0.8c9.7-3.3,14.5-9.9,14.5-20.1
	c0-14.3-9.1-21.9-26.3-21.9h-48.2L355.5,191.7L355.5,191.7z M260.7,191.7h19.2l7.9-22h35.5l7.9,22h20.1v-0.3l-33.9-87.9h-22.9
	l-33.8,87.9L260.7,191.7L260.7,191.7z M259.5,75l-27,116.7H123.1l26,11.1l-2,8.7H88.2l14.6,6.7l-1.5,6.8H71.6l10.9-47.3h17.3
	l11.8-50.3h32.8l12-52.4L259.5,75L259.5,75z"/>
</svg>
